<svg xmlns="http://www.w3.org/2000/svg" x="0px" y="0px" width="100" height="100" viewBox="0 0 64 64">
<linearGradient id="j60VCtKB9ZT9t2svrZTTfa_XTwDewtklGCW_gr1" x1="19" x2="19" y1="15" y2="23" gradientUnits="userSpaceOnUse"><stop offset="0" stop-color="#6dc7ff"></stop><stop offset="1" stop-color="#e6abff"></stop></linearGradient><circle cx="19" cy="19" r="4" fill="url(#j60VCtKB9ZT9t2svrZTTfa_XTwDewtklGCW_gr1)"></circle><linearGradient id="j60VCtKB9ZT9t2svrZTTfb_XTwDewtklGCW_gr2" x1="19" x2="19" y1="28" y2="36" gradientUnits="userSpaceOnUse"><stop offset="0" stop-color="#6dc7ff"></stop><stop offset="1" stop-color="#e6abff"></stop></linearGradient><circle cx="19" cy="32" r="4" fill="url(#j60VCtKB9ZT9t2svrZTTfb_XTwDewtklGCW_gr2)"></circle><linearGradient id="j60VCtKB9ZT9t2svrZTTfc_XTwDewtklGCW_gr3" x1="19" x2="19" y1="41" y2="49" gradientUnits="userSpaceOnUse"><stop offset="0" stop-color="#6dc7ff"></stop><stop offset="1" stop-color="#e6abff"></stop></linearGradient><circle cx="19" cy="45" r="4" fill="url(#j60VCtKB9ZT9t2svrZTTfc_XTwDewtklGCW_gr3)"></circle><linearGradient id="j60VCtKB9ZT9t2svrZTTfd_XTwDewtklGCW_gr4" x1="32" x2="32" y1="9" y2="55" gradientUnits="userSpaceOnUse"><stop offset="0" stop-color="#1a6dff"></stop><stop offset="1" stop-color="#c822ff"></stop></linearGradient><path fill="url(#j60VCtKB9ZT9t2svrZTTfd_XTwDewtklGCW_gr4)" d="M19,27c-2.757,0-5,2.243-5,5s2.243,5,5,5s5-2.243,5-5S21.757,27,19,27z M19,35	c-1.654,0-3-1.346-3-3s1.346-3,3-3s3,1.346,3,3S20.654,35,19,35z M19,14c-2.757,0-5,2.243-5,5s2.243,5,5,5s5-2.243,5-5	S21.757,14,19,14z M19,22c-1.654,0-3-1.346-3-3s1.346-3,3-3s3,1.346,3,3S20.654,22,19,22z M50,9H14c-2.757,0-5,2.243-5,5v36	c0,2.757,2.243,5,5,5h36c2.757,0,5-2.243,5-5V14C55,11.243,52.757,9,50,9z M53,50c0,1.654-1.346,3-3,3H14c-1.654,0-3-1.346-3-3V14	c0-1.654,1.346-3,3-3h36c1.654,0,3,1.346,3,3V50z M19,40c-2.757,0-5,2.243-5,5s2.243,5,5,5s5-2.243,5-5S21.757,40,19,40z M19,48	c-1.654,0-3-1.346-3-3s1.346-3,3-3s3,1.346,3,3S20.654,48,19,48z M49,19c0,0.552-0.447,1-1,1H29c-0.553,0-1-0.448-1-1s0.447-1,1-1	h19C48.553,18,49,18.448,49,19z M49,45c0,0.553-0.447,1-1,1H29c-0.553,0-1-0.447-1-1s0.447-1,1-1h19C48.553,44,49,44.447,49,45z M49,32c0,0.552-0.447,1-1,1H29c-0.553,0-1-0.448-1-1s0.447-1,1-1h19C48.553,31,49,31.448,49,32z"></path>
</svg>